<svg xmlns="http://www.w3.org/2000/svg" viewBox="0 0 264.11 307.5">
  <defs>
    <style>
      .cls-1 {
        fill: #020202;
      }

      .cls-2, .cls-3 {
        fill: none;
        stroke: #020202;
        stroke-miterlimit: 10;
      }

      .cls-2 {
        stroke-width: 5px;
      }

      .cls-3 {
        stroke-width: 2px;
      }
    </style>
  </defs>
  <title>body</title>
  <g id="Layer_2" data-name="Layer 2">
    <path class="cls-1" d="M337.83,195.85v-53s-26.5,2.5-37,4.25c0,0-43.77.85-53.74-2a4.52,4.52,0,0,1-1.76-.79l1,51.5.25,54.75,2,70.75,7,69.25-.5,20.25,1,21.75h87l22,1.25h17.75s5.75,3.25,0,7l-61-1.5-42-1v1.25h-28l-.75,1.25-58.25,2.75H146.58l-1.25-1.75-10,.25-5.75-.75V438.6l4.5-.5,20-.25-.25,1.25,27.5-.5.25-1.25,22,.25,11-1,.5-1.25,9.5-.25,14-.5-.25-1.75h6.5l.25-26.75-1.5-.75.75-26.75-1.75.25,1.25-11.75-2.25-1,.75-14.25-2-24.25-1.25-12-1.25-11-.5-87,1.25-1-.5-23.75,1.75-.5-1-16.75,2.25-.5-1-15.25h2l-.75-17,.5-3,.75-3.75,1.75,1.5.25,4.25,21,.5,1,1.25h4.25l.25-1.75,32.5.75.25-1.25,6.75.25.75-1.5,7.25.5,2-1.75,7,.5.5-1.25,11.25.5,1.25,6.25,1.25,3,.25,6,2.25,26.5-.25,9.25.5,6.5S344.58,203.6,337.83,195.85Z" transform="translate(-129.58 -136.1)"/>
  </g>
  <g id="head">
    <path class="cls-1" d="M337.83,195.85v-53s-26.5,2.5-37,4.25c0,0-43.77.85-53.74-2a4.52,4.52,0,0,1-1.76-.79l1,51.5.25,54.75,2,70.75,7,69.25-.5,20.25,1,21.75h87l22,1.25h17.75s5.75,3.25,0,7l-61-1.5-42-1v1.25h-28l-.75,1.25-58.25,2.75H146.58l-1.25-1.75-10,.25-5.75-.75V438.6l4.5-.5,20-.25-.25,1.25,27.5-.5.25-1.25,22,.25,11-1,.5-1.25,9.5-.25,14-.5-.25-1.75h6.5l.25-26.75-1.5-.75.75-26.75-1.75.25,1.25-11.75-2.25-1,.75-14.25-2-24.25-1.25-12-1.25-11-.5-87,1.25-1-.5-23.75,1.75-.5-1-16.75,2.25-.5-1-15.25h2l-.75-17,.5-3,.75-3.75,1.75,1.5.25,4.25,21,.5,1,1.25h4.25l.25-1.75,32.5.75.25-1.25,6.75.25.75-1.5,7.25.5,2-1.75,7,.5.5-1.25,11.25.5,1.25,6.25,1.25,3,.25,6,2.25,26.5-.25,9.25.5,6.5S344.58,203.6,337.83,195.85Z" transform="translate(-129.58 -136.1)"/>
    <ellipse class="cls-2" cx="213.63" cy="91.41" rx="24.77" ry="28.04"/>
  </g>
  <g id="EYE">
    <path class="cls-1" d="M337.83,195.85v-53s-26.5,2.5-37,4.25c0,0-43.77.85-53.74-2a4.52,4.52,0,0,1-1.76-.79l1,51.5.25,54.75,2,70.75,7,69.25-.5,20.25,1,21.75h87l22,1.25h17.75s5.75,3.25,0,7l-61-1.5-42-1v1.25h-28l-.75,1.25-58.25,2.75H146.58l-1.25-1.75-10,.25-5.75-.75V438.6l4.5-.5,20-.25-.25,1.25,27.5-.5.25-1.25,22,.25,11-1,.5-1.25,9.5-.25,14-.5-.25-1.75h6.5l.25-26.75-1.5-.75.75-26.75-1.75.25,1.25-11.75-2.25-1,.75-14.25-2-24.25-1.25-12-1.25-11-.5-87,1.25-1-.5-23.75,1.75-.5-1-16.75,2.25-.5-1-15.25h2l-.75-17,.5-3,.75-3.75,1.75,1.5.25,4.25,21,.5,1,1.25h4.25l.25-1.75,32.5.75.25-1.25,6.75.25.75-1.5,7.25.5,2-1.75,7,.5.5-1.25,11.25.5,1.25,6.25,1.25,3,.25,6,2.25,26.5-.25,9.25.5,6.5S344.58,203.6,337.83,195.85Z" transform="translate(-129.58 -136.1)"/>
    <ellipse class="cls-2" cx="213.63" cy="91.41" rx="24.77" ry="28.04"/>
    <circle class="cls-1" cx="204.83" cy="81.52" r="3.67"/>
  </g>
  <g id="EYES">
    <path class="cls-1" d="M337.83,195.85v-53s-26.5,2.5-37,4.25c0,0-43.77.85-53.74-2a4.52,4.52,0,0,1-1.76-.79l1,51.5.25,54.75,2,70.75,7,69.25-.5,20.25,1,21.75h87l22,1.25h17.75s5.75,3.25,0,7l-61-1.5-42-1v1.25h-28l-.75,1.25-58.25,2.75H146.58l-1.25-1.75-10,.25-5.75-.75V438.6l4.5-.5,20-.25-.25,1.25,27.5-.5.25-1.25,22,.25,11-1,.5-1.25,9.5-.25,14-.5-.25-1.75h6.5l.25-26.75-1.5-.75.75-26.75-1.75.25,1.25-11.75-2.25-1,.75-14.25-2-24.25-1.25-12-1.25-11-.5-87,1.25-1-.5-23.75,1.75-.5-1-16.75,2.25-.5-1-15.25h2l-.75-17,.5-3,.75-3.75,1.75,1.5.25,4.25,21,.5,1,1.25h4.25l.25-1.75,32.5.75.25-1.25,6.75.25.75-1.5,7.25.5,2-1.75,7,.5.5-1.25,11.25.5,1.25,6.25,1.25,3,.25,6,2.25,26.5-.25,9.25.5,6.5S344.58,203.6,337.83,195.85Z" transform="translate(-129.58 -136.1)"/>
    <ellipse class="cls-2" cx="213.63" cy="91.41" rx="24.77" ry="28.04"/>
    <circle class="cls-1" cx="204.83" cy="81.52" r="3.67"/>
    <circle class="cls-1" cx="221.08" cy="81.52" r="3.67"/>
  </g>
  <g id="MOUSE">
    <path class="cls-1" d="M337.83,195.85v-53s-26.5,2.5-37,4.25c0,0-43.77.85-53.74-2a4.52,4.52,0,0,1-1.76-.79l1,51.5.25,54.75,2,70.75,7,69.25-.5,20.25,1,21.75h87l22,1.25h17.75s5.75,3.25,0,7l-61-1.5-42-1v1.25h-28l-.75,1.25-58.25,2.75H146.58l-1.25-1.75-10,.25-5.75-.75V438.6l4.5-.5,20-.25-.25,1.25,27.5-.5.25-1.25,22,.25,11-1,.5-1.25,9.5-.25,14-.5-.25-1.75h6.5l.25-26.75-1.5-.75.75-26.75-1.75.25,1.25-11.75-2.25-1,.75-14.25-2-24.25-1.25-12-1.25-11-.5-87,1.25-1-.5-23.75,1.75-.5-1-16.75,2.25-.5-1-15.25h2l-.75-17,.5-3,.75-3.75,1.75,1.5.25,4.25,21,.5,1,1.25h4.25l.25-1.75,32.5.75.25-1.25,6.75.25.75-1.5,7.25.5,2-1.75,7,.5.5-1.25,11.25.5,1.25,6.25,1.25,3,.25,6,2.25,26.5-.25,9.25.5,6.5S344.58,203.6,337.83,195.85Z" transform="translate(-129.58 -136.1)"/>
    <ellipse class="cls-2" cx="213.63" cy="91.41" rx="24.77" ry="28.04"/>
    <circle class="cls-1" cx="204.83" cy="81.52" r="3.67"/>
    <circle class="cls-1" cx="221.08" cy="81.52" r="3.67"/>
    <path class="cls-3" d="M335.5,238s8.38-9,16.25,0" transform="translate(-129.58 -136.1)"/>
  </g>
  <g id="HANDS">
    <path class="cls-1" d="M337.83,195.85v-53s-26.5,2.5-37,4.25c0,0-43.77.85-53.74-2a4.52,4.52,0,0,1-1.76-.79l1,51.5.25,54.75,2,70.75,7,69.25-.5,20.25,1,21.75h87l22,1.25h17.75s5.75,3.25,0,7l-61-1.5-42-1v1.25h-28l-.75,1.25-58.25,2.75H146.58l-1.25-1.75-10,.25-5.75-.75V438.6l4.5-.5,20-.25-.25,1.25,27.5-.5.25-1.25,22,.25,11-1,.5-1.25,9.5-.25,14-.5-.25-1.75h6.5l.25-26.75-1.5-.75.75-26.75-1.75.25,1.25-11.75-2.25-1,.75-14.25-2-24.25-1.25-12-1.25-11-.5-87,1.25-1-.5-23.75,1.75-.5-1-16.75,2.25-.5-1-15.25h2l-.75-17,.5-3,.75-3.75,1.75,1.5.25,4.25,21,.5,1,1.25h4.25l.25-1.75,32.5.75.25-1.25,6.75.25.75-1.5,7.25.5,2-1.75,7,.5.5-1.25,11.25.5,1.25,6.25,1.25,3,.25,6,2.25,26.5-.25,9.25.5,6.5S344.58,203.6,337.83,195.85Z" transform="translate(-129.58 -136.1)"/>
    <ellipse class="cls-2" cx="213.63" cy="91.41" rx="24.77" ry="28.04"/>
    <circle class="cls-1" cx="204.83" cy="81.52" r="3.67"/>
    <circle class="cls-1" cx="221.08" cy="81.52" r="3.67"/>
    <path class="cls-3" d="M335.5,238s8.38-9,16.25,0" transform="translate(-129.58 -136.1)"/>
    <line class="cls-2" x1="170.71" y1="147.9" x2="264.11" y2="147.9"/>
    <path class="cls-2" d="M343.21,336.67" transform="translate(-129.58 -136.1)"/>
    <path class="cls-2" d="M343.21,257.54" transform="translate(-129.58 -136.1)"/>
  </g>
  <g id="BODY">
    <path class="cls-1" d="M337.83,195.85v-53s-26.5,2.5-37,4.25c0,0-43.77.85-53.74-2a4.52,4.52,0,0,1-1.76-.79l1,51.5.25,54.75,2,70.75,7,69.25-.5,20.25,1,21.75h87l22,1.25h17.75s5.75,3.25,0,7l-61-1.5-42-1v1.25h-28l-.75,1.25-58.25,2.75H146.58l-1.25-1.75-10,.25-5.75-.75V438.6l4.5-.5,20-.25-.25,1.25,27.5-.5.25-1.25,22,.25,11-1,.5-1.25,9.5-.25,14-.5-.25-1.75h6.5l.25-26.75-1.5-.75.75-26.75-1.75.25,1.25-11.75-2.25-1,.75-14.25-2-24.25-1.25-12-1.25-11-.5-87,1.25-1-.5-23.75,1.75-.5-1-16.75,2.25-.5-1-15.25h2l-.75-17,.5-3,.75-3.75,1.75,1.5.25,4.25,21,.5,1,1.25h4.25l.25-1.75,32.5.75.25-1.25,6.75.25.75-1.5,7.25.5,2-1.75,7,.5.5-1.25,11.25.5,1.25,6.25,1.25,3,.25,6,2.25,26.5-.25,9.25.5,6.5S344.58,203.6,337.83,195.85Z" transform="translate(-129.58 -136.1)"/>
    <ellipse class="cls-2" cx="213.63" cy="91.41" rx="24.77" ry="28.04"/>
    <circle class="cls-1" cx="204.83" cy="81.52" r="3.67"/>
    <circle class="cls-1" cx="221.08" cy="81.52" r="3.67"/>
    <path class="cls-3" d="M335.5,238s8.38-9,16.25,0" transform="translate(-129.58 -136.1)"/>
    <path class="cls-2" d="M393,284" transform="translate(-129.58 -136.1)"/>
    <path class="cls-2" d="M299.62,284" transform="translate(-129.58 -136.1)"/>
    <line class="cls-2" x1="216.74" y1="121.44" x2="216.74" y2="200.57"/>
  </g>
</svg>
